<svg width="11" height="14" viewBox="0 0 11 14" fill="none" xmlns="http://www.w3.org/2000/svg">
<path d="M5.50002 0.00109863C2.98555 0.00109863 0.947144 1.79969 0.947144 4.01834C0.94897 4.6995 1.14709 5.36914 1.33164 5.66665L5.50002 13.9987L9.4838 5.96418H9.48171C9.85588 5.36875 10.0524 4.69918 10.0529 4.01834C10.0529 1.79969 8.01449 0.00109863 5.50002 0.00109863ZM5.50002 2.00969C5.79897 2.00969 6.09499 2.06165 6.37118 2.16259C6.64737 2.26354 6.89832 2.4115 7.10971 2.59802C7.32109 2.78454 7.48877 3.00597 7.60317 3.24967C7.71756 3.49337 7.77644 3.75457 7.77643 4.01834C7.77643 4.55106 7.53659 5.06195 7.10968 5.43863C6.68278 5.81532 6.10376 6.02694 5.50002 6.02694C4.89628 6.02694 4.31727 5.81532 3.89036 5.43863C3.46345 5.06195 3.22362 4.55106 3.22362 4.01834C3.22362 3.48563 3.46345 2.97474 3.89036 2.59805C4.31727 2.22137 4.89628 2.00975 5.50002 2.00975V2.00969Z" fill="#071A35"/>
</svg>
