<svg width="20" height="21" viewBox="0 0 20 21" fill="none" xmlns="http://www.w3.org/2000/svg">
<path fill-rule="evenodd" clip-rule="evenodd" d="M12.6649 0.830025C12.8427 0.741112 13.0486 0.726454 13.2373 0.789272C13.4259 0.85209 13.5819 0.987244 13.6709 1.16502L15.4839 4.79102C15.9119 4.81302 16.3009 4.84602 16.6539 4.89702C17.7099 5.04802 18.5839 5.37402 19.2049 6.14202C19.8259 6.91102 19.9619 7.83303 19.8889 8.89703C19.8189 9.92803 19.5389 11.229 19.1909 12.854L18.7399 14.961C18.5049 16.058 18.3139 16.947 18.0739 17.641C17.8239 18.366 17.4939 18.961 16.9319 19.416C16.3699 19.871 15.7179 20.068 14.9579 20.161C14.2279 20.25 13.3179 20.25 12.1979 20.25H7.8019C6.6799 20.25 5.7709 20.25 5.0409 20.161C4.2809 20.068 3.6289 19.871 3.0669 19.416C2.5039 18.961 2.1749 18.366 1.9249 17.642C1.6849 16.947 1.4949 16.058 1.2589 14.962L0.807902 12.855C0.459902 11.229 0.180902 9.92803 0.109902 8.89703C0.036902 7.83303 0.172902 6.91102 0.793902 6.14202C1.4139 5.37402 2.2879 5.04802 3.3439 4.89702C3.6969 4.84702 4.0869 4.81302 4.5139 4.79102L6.3299 1.16502C6.41968 0.988655 6.57552 0.854916 6.76347 0.792952C6.95142 0.730988 7.15625 0.745822 7.33331 0.834221C7.51037 0.92262 7.64532 1.07742 7.70874 1.26488C7.77216 1.45235 7.75892 1.65728 7.6719 1.83502L6.2119 4.75202C6.5759 4.75002 6.9589 4.75002 7.3609 4.75002H12.6389C13.0409 4.75002 13.4239 4.75002 13.7879 4.75202L12.3289 1.83502C12.24 1.65719 12.2253 1.45132 12.2881 1.26268C12.351 1.07403 12.4861 0.918054 12.6639 0.829025M3.7319 6.35802L3.3289 7.16402C3.284 7.25224 3.25701 7.34846 3.24947 7.44716C3.24194 7.54585 3.25402 7.64506 3.28501 7.73907C3.316 7.83308 3.36529 7.92002 3.43005 7.99488C3.4948 8.06974 3.57373 8.13105 3.66229 8.17526C3.75085 8.21948 3.84728 8.24572 3.94603 8.25249C4.04478 8.25925 4.14389 8.24641 4.23766 8.21468C4.33142 8.18296 4.41797 8.13299 4.49233 8.06766C4.56669 8.00233 4.62738 7.92292 4.6709 7.83402L5.4579 6.26003C6.0279 6.25003 6.6779 6.24902 7.4219 6.24902H12.5779C13.3219 6.24902 13.9719 6.24902 14.5419 6.25902L15.3289 7.83402C15.4187 8.01039 15.5745 8.14413 15.7625 8.2061C15.9504 8.26806 16.1552 8.25323 16.3323 8.16483C16.5094 8.07643 16.6443 7.92163 16.7077 7.73417C16.7712 7.5467 16.7579 7.34177 16.6709 7.16402L16.2679 6.35802L16.4419 6.38102C17.3259 6.50802 17.7589 6.73902 18.0389 7.08402C18.3139 7.42402 18.4489 7.88702 18.3949 8.74902H1.6049C1.5509 7.88702 1.6859 7.42402 1.9609 7.08402C2.2409 6.73902 2.6739 6.50802 3.5579 6.38102L3.7319 6.35802ZM2.2879 12.6C2.11599 11.8191 1.95564 11.0357 1.8069 10.25H18.1929C18.0436 11.0356 17.8829 11.8191 17.7109 12.6L17.2829 14.6C17.0349 15.755 16.8629 16.554 16.6559 17.152C16.4559 17.732 16.2519 18.038 15.9889 18.25C15.7269 18.462 15.3839 18.598 14.7769 18.672C14.1479 18.749 13.3299 18.75 12.1489 18.75H7.8499C6.6699 18.75 5.8519 18.749 5.2229 18.672C4.6149 18.598 4.2729 18.462 4.0109 18.25C3.7479 18.038 3.5429 17.731 3.3439 17.152C3.1369 16.554 2.9639 15.755 2.7169 14.6L2.2879 12.6Z" fill="white"/>
</svg>
