<svg width="26" height="26" viewBox="0 0 26 26" fill="none" xmlns="http://www.w3.org/2000/svg">
<path d="M12.775 25.495C11.075 25.495 9.45503 25.17 7.91503 24.52C6.41503 23.89 5.08753 22.9975 3.93253 21.8425C2.77753 20.6875 1.88503 19.36 1.25503 17.86C0.605029 16.32 0.280029 14.7 0.280029 13C0.280029 11.3 0.605029 9.68 1.25503 8.14C1.88503 6.64 2.77753 5.3125 3.93253 4.1575C5.08753 3.0025 6.41503 2.11 7.91503 1.48C9.45503 0.829996 11.075 0.504995 12.775 0.504995C14.475 0.504995 16.095 0.829996 17.635 1.48C19.135 2.11 20.4625 3.0025 21.6175 4.1575C22.7725 5.3125 23.665 6.64 24.295 8.14C24.945 9.68 25.27 11.3 25.27 13C25.27 14.7 24.945 16.32 24.295 17.86C23.665 19.36 22.7725 20.6875 21.6175 21.8425C20.4625 22.9975 19.135 23.89 17.635 24.52C16.095 25.17 14.475 25.495 12.775 25.495ZM12.775 23.005C14.135 23.005 15.43 22.74 16.66 22.21C17.86 21.71 18.9225 20.9975 19.8475 20.0725C20.7725 19.1475 21.485 18.085 21.985 16.885C22.515 15.655 22.78 14.36 22.78 13C22.78 11.64 22.515 10.345 21.985 9.115C21.485 7.915 20.7725 6.8525 19.8475 5.9275C18.9225 5.0025 17.86 4.29 16.66 3.79C15.43 3.26 14.135 2.995 12.775 2.995C11.415 2.995 10.12 3.26 8.89003 3.79C7.69003 4.29 6.62753 5.0025 5.70253 5.9275C4.77753 6.8525 4.06503 7.915 3.56503 9.115C3.03503 10.345 2.77003 11.64 2.77003 13C2.77003 14.36 3.03503 15.655 3.56503 16.885C4.06503 18.085 4.77753 19.1475 5.70253 20.0725C6.62753 20.9975 7.69003 21.71 8.89003 22.21C10.12 22.74 11.415 23.005 12.775 23.005ZM11.53 16.75H14.02V19.255H11.53V16.75ZM14.02 14.695V15.505H11.53V13.63C11.53 13.28 11.65 12.9825 11.89 12.7375C12.13 12.4925 12.4175 12.37 12.7525 12.37C13.0875 12.37 13.395 12.2925 13.675 12.1375C13.955 11.9825 14.1825 11.7725 14.3575 11.5075C14.5325 11.2425 14.63 10.9475 14.65 10.6225C14.67 10.2975 14.6125 9.9925 14.4775 9.7075C14.3425 9.4225 14.1475 9.185 13.8925 8.995C13.6375 8.805 13.3475 8.6875 13.0225 8.6425C12.6975 8.5975 12.3875 8.635 12.0925 8.755C11.7975 8.875 11.5475 9.055 11.3425 9.295C11.1375 9.535 11 9.815 10.93 10.135L8.48503 9.64C8.62503 8.95 8.91003 8.33249 9.34003 7.78749C9.77003 7.24249 10.3 6.8225 10.93 6.5275C11.56 6.2325 12.2275 6.0975 12.9325 6.1225C13.6375 6.1475 14.2925 6.33 14.8975 6.67C15.5025 7.01 16 7.465 16.39 8.035C16.78 8.605 17.02 9.24 17.11 9.94C17.2 10.64 17.1275 11.3175 16.8925 11.9725C16.6575 12.6275 16.29 13.195 15.79 13.675C15.29 14.155 14.7 14.495 14.02 14.695Z" fill="#464650"/>
</svg>
