<svg width="20" height="21" viewBox="0 0 20 21" fill="none" xmlns="http://www.w3.org/2000/svg">
<g clip-path="url(#clip0_1_441)">
<path d="M20 0.689941H0V20.6899H20V0.689941Z" fill="#FF4B55"/>
<path d="M11.7709 11.6267L14.6175 9.53811H11.0923L10 6.17627L8.90774 9.53811H5.38251L8.22911 11.6267L7.14528 14.9626L9.99723 12.9241L10 12.9261L10.0028 12.9241L12.8547 14.9626L11.7709 11.6267ZM12.342 10.2834L11.5284 10.8803L11.3344 10.2834H12.342ZM9.10438 11.3446L9.44923 10.2834H10.5508L10.8956 11.3446L10 12.0018L9.10438 11.3446ZM10 8.5883L10.3086 9.53811H9.69141L10 8.5883ZM7.65805 10.2834H8.66559L8.47161 10.8803L7.65805 10.2834ZM8.55364 13.0397L8.86188 12.091L9.36466 12.4599L8.55364 13.0397ZM11.1381 12.091L11.4464 13.0397L10.6354 12.4599L11.1381 12.091Z" fill="#5A8250"/>
</g>
<defs>
<clipPath id="clip0_1_441">
<rect width="20" height="20" fill="white" transform="translate(0 0.689941)"/>
</clipPath>
</defs>
</svg>
